<svg width="17" height="17" viewBox="0 0 17 17" fill="none" xmlns="http://www.w3.org/2000/svg">
<path d="M4.55261 4.94739L4.55261 4.55265C4.55261 2.59059 6.14318 1.00002 8.10524 1.00002V1.00002C10.0673 1.00002 11.6579 2.59059 11.6579 4.55265L11.6579 4.94739" stroke="#666666" stroke-width="2" stroke-linecap="round"/>
<path d="M16.2105 6.94739V14H14.2105V6.94739H16.2105ZM-1.52588e-05 14V6.94739H1.99998V14H-1.52588e-05ZM2.99998 3.94739H13.2105V5.94739H2.99998V3.94739ZM2.99998 15H13.2105V17H2.99998V15ZM-1.52588e-05 6.94739C-1.52588e-05 5.29053 1.34313 3.94739 2.99998 3.94739V5.94739C2.4477 5.94739 1.99998 6.3951 1.99998 6.94739H-1.52588e-05ZM1.99998 14C1.99998 14.5523 2.4477 15 2.99998 15V17C1.34313 17 -1.52588e-05 15.6569 -1.52588e-05 14H1.99998ZM16.2105 14C16.2105 15.6569 14.8674 17 13.2105 17V15C13.7628 15 14.2105 14.5523 14.2105 14H16.2105ZM14.2105 6.94739C14.2105 6.3951 13.7628 5.94739 13.2105 5.94739V3.94739C14.8674 3.94739 16.2105 5.29054 16.2105 6.94739H14.2105Z" fill="#666666"/>
<path d="M9.2895 9.68421C9.2895 9.03019 8.75931 8.5 8.10529 8.5C7.45127 8.5 6.92108 9.03019 6.92108 9.68421C6.92108 10.3382 7.45127 10.8684 8.10529 10.8684C8.75931 10.8684 9.2895 10.3382 9.2895 9.68421Z" stroke="#666666" stroke-width="2"/>
<path d="M8.10529 11.2632L8.10529 12.8421" stroke="#666666" stroke-width="2" stroke-linecap="round" stroke-linejoin="round"/>
</svg>
